<svg xmlns="http://www.w3.org/2000/svg" xmlns:xlink="http://www.w3.org/1999/xlink" version="1.1" x="0px" y="0px" viewBox="0 0 100 125" style="enable-background:new 0 0 100 100;" xml:space="preserve"><path d="M50,87.5c18.7,0,33.8-4.7,33.8-13.1c0-6.7-8.9-10.7-21.9-12.4c-2.1-0.3-3.9,1.2-4.2,3.2c-0.3,2.1,1.2,3.9,3.2,4.2  c4.2,0.4,8.4,1.5,12.4,3.1c0.8,0.4,1.5,0.8,2.2,1.3c0.3,0.2,0.4,0.6,0.2,0.9c-0.1,0.1-0.1,0.2-0.2,0.2c0,0-1.2,1.2-5.3,2.5  C63.5,79.2,56.8,80.1,50,80c-6.8,0.1-13.6-0.8-20.1-2.6c-4.2-1.3-5.4-2.4-5.4-2.4c-0.3-0.2-0.4-0.6-0.3-0.9c0.1-0.1,0.1-0.2,0.3-0.3  c0.7-0.5,1.4-1,2.2-1.3c4-1.6,8.2-2.7,12.5-3.1c2-0.5,3.3-2.5,2.8-4.5c-0.4-1.7-2-2.9-3.7-2.9c-13.1,1.7-22,5.7-22,12.4  C16.2,82.8,31.3,87.5,50,87.5z"/><path d="M46.2,49.6v23.6c0,1.7,1.3,3,3,3h1.5c1.7,0,3-1.3,3-3V49.6c10.1-2.1,16.7-12,14.6-22.1s-12-16.7-22.1-14.6  S29.5,24.9,31.6,35C33.1,42.4,38.8,48.1,46.2,49.6L46.2,49.6z M50,20c6.2,0,11.2,5.1,11.2,11.3c0,6.2-5.1,11.2-11.3,11.2  c-6.2,0-11.2-5-11.2-11.2C38.7,25,43.8,20,50,20C50,20,50,20,50,20z"/><text x="0" y="115" fill="#F34E5C" font-size="5px" font-weight="bold" font-family="'Helvetica Neue', Helvetica, Arial-Unicode, Arial, Sans-serif"></text><text x="0" y="120" fill="#F34E5C" font-size="5px" font-weight="bold" font-family="'Helvetica Neue', Helvetica, Arial-Unicode, Arial, Sans-serif"></text></svg>